<svg width="120" height="93" viewBox="0 0 120 93" fill="none" xmlns="http://www.w3.org/2000/svg">
<path d="M15 1H84.4068M49.7034 1.77119V78.5M106 92H36.5932M71.2966 91.2288V15.6782" stroke="black"/>
<path d="M119.106 47L119.458 47.3554L119.815 47.0019L119.459 46.6464L119.106 47ZM87.6483 77.425L87.2929 77.7767L87.9963 78.4875L88.3517 78.1358L87.6483 77.425ZM87.7523 16.3536L118.752 47.3536L119.459 46.6464L88.4594 15.6464L87.7523 16.3536ZM88.3517 78.1358L119.458 47.3554L118.754 46.6446L87.6483 77.425L88.3517 78.1358Z" fill="black"/>
<path d="M1.00002 47L0.648325 47.3554L0.291044 47.0019L0.646461 46.6464L1.00002 47ZM32.4575 77.425L32.8129 77.7767L32.1096 78.4875L31.7541 78.1358L32.4575 77.425ZM32.3536 16.3536L1.35357 47.3536L0.646461 46.6464L31.6465 15.6464L32.3536 16.3536ZM31.7541 78.1358L0.648325 47.3554L1.35171 46.6446L32.4575 77.425L31.7541 78.1358Z" fill="black"/>
</svg>
