<svg version="1.1" id="Layer_1" xmlns="http://www.w3.org/2000/svg" xmlns:xlink="http://www.w3.org/1999/xlink" x="0px" y="0px"
	 width="100%" viewBox="0 0 1200 1200" enable-background="new 0 0 1200 1200" xml:space="preserve">
<path fill="#000000" opacity="1.000000" stroke="none" 
	d="
M1194.058350,1201.000000 
	C796.046265,1201.000000 398.548645,1201.000000 1.025491,1201.000000 
	C1.025491,801.019348 1.025491,401.038696 1.025491,1.029032 
	C400.978271,1.029032 800.956543,1.029032 1200.967407,1.029032 
	C1200.967407,400.975922 1200.967407,800.951843 1200.967407,1201.000000 
	C1198.857788,1201.000000 1196.715332,1201.000000 1194.058350,1201.000000 
M528.553589,631.998291 
	C506.911987,631.669373 485.270752,631.214355 463.628418,631.156067 
	C460.602570,631.147888 456.701660,632.252686 454.729340,634.305847 
	C450.976959,638.212158 448.047302,643.017273 445.335724,647.768555 
	C444.005005,650.100159 443.431061,653.138367 443.384827,655.871460 
	C443.287384,661.630005 443.870087,667.396118 443.985016,673.162903 
	C444.386353,693.304016 444.369385,713.460938 445.215668,733.582214 
	C445.584381,742.348694 444.963226,751.569885 451.492859,759.186584 
	C455.141479,763.442688 457.982605,768.481567 460.672455,773.446777 
	C464.228485,780.010986 469.411133,782.988220 476.843567,783.055115 
	C493.155273,783.201965 509.464783,783.640015 525.773926,784.015442 
	C533.918335,784.202881 542.059326,784.536865 550.203064,784.759399 
	C554.332581,784.872253 558.668823,784.088562 562.559143,785.085632 
	C576.746582,788.722107 590.242371,786.613098 603.745178,781.875122 
	C607.562195,780.535828 611.912781,780.126587 615.992859,780.237671 
	C628.294495,780.572754 640.577515,781.570679 652.878845,781.945679 
	C670.183411,782.473206 687.504456,782.488525 704.805420,783.095886 
	C712.770813,783.375610 720.710144,784.493347 728.651367,785.325745 
	C732.275879,785.705688 735.254883,787.038452 734.942139,791.458069 
	C734.385132,799.327209 737.258423,801.242065 745.187195,797.939758 
	C752.069885,795.073242 758.558472,791.262268 765.229675,787.885437 
	C775.171326,782.853027 776.751587,779.341553 774.528870,768.245117 
	C773.670776,763.961304 771.538147,762.022278 767.053345,761.969788 
	C749.742615,761.767639 732.435425,761.277405 715.125122,761.015442 
	C688.986084,760.619751 662.846008,760.267639 636.705078,760.043945 
	C632.293945,760.006226 630.608521,758.747925 630.785706,753.930847 
	C631.446411,735.966675 631.646179,717.985352 631.994812,700.009949 
	C632.172424,690.852722 632.731262,681.672241 632.262878,672.546204 
	C632.034180,668.088867 630.289246,663.534363 628.426575,659.384766 
	C626.536682,655.174622 623.058350,651.651672 621.332275,647.398926 
	C617.564026,638.114319 610.769104,634.446289 601.144714,632.856018 
	C585.579712,630.284119 570.054810,634.902710 554.427002,631.653564 
	C546.497620,630.005066 537.857727,631.774048 528.553589,631.998291 
z"/>
<path fill="#121212" opacity="1.000000" stroke="none" 
	d="
M529.046326,631.998169 
	C537.857727,631.774048 546.497620,630.005066 554.427002,631.653564 
	C570.054810,634.902710 585.579712,630.284119 601.144714,632.856018 
	C610.769104,634.446289 617.564026,638.114319 621.332275,647.398926 
	C623.058350,651.651672 626.536682,655.174622 628.426575,659.384766 
	C630.289246,663.534363 632.034180,668.088867 632.262878,672.546204 
	C632.731262,681.672241 632.172424,690.852722 631.994812,700.009949 
	C631.646179,717.985352 631.446411,735.966675 630.785706,753.930847 
	C630.608521,758.747925 632.293945,760.006226 636.705078,760.043945 
	C662.846008,760.267639 688.986084,760.619751 715.125122,761.015442 
	C732.435425,761.277405 749.742615,761.767639 767.053345,761.969788 
	C771.538147,762.022278 773.670776,763.961304 774.528870,768.245117 
	C776.751587,779.341553 775.171326,782.853027 765.229675,787.885437 
	C758.558472,791.262268 752.069885,795.073242 745.187195,797.939758 
	C737.258423,801.242065 734.385132,799.327209 734.942139,791.458069 
	C735.254883,787.038452 732.275879,785.705688 728.651367,785.325745 
	C720.710144,784.493347 712.770813,783.375610 704.805420,783.095886 
	C687.504456,782.488525 670.183411,782.473206 652.878845,781.945679 
	C640.577515,781.570679 628.294495,780.572754 615.992859,780.237671 
	C611.912781,780.126587 607.562195,780.535828 603.745178,781.875122 
	C590.242371,786.613098 576.746582,788.722107 562.559143,785.085632 
	C558.668823,784.088562 554.332581,784.872253 550.203064,784.759399 
	C542.059326,784.536865 533.918335,784.202881 525.773926,784.015442 
	C509.464783,783.640015 493.155273,783.201965 476.843567,783.055115 
	C469.411133,782.988220 464.228485,780.010986 460.672455,773.446777 
	C457.982605,768.481567 455.141479,763.442688 451.492859,759.186584 
	C444.963226,751.569885 445.584381,742.348694 445.215668,733.582214 
	C444.369385,713.460938 444.386353,693.304016 443.985016,673.162903 
	C443.870087,667.396118 443.287384,661.630005 443.384827,655.871460 
	C443.431061,653.138367 444.005005,650.100159 445.335724,647.768555 
	C448.047302,643.017273 450.976959,638.212158 454.729340,634.305847 
	C456.701660,632.252686 460.602570,631.147888 463.628418,631.156067 
	C485.270752,631.214355 506.911987,631.669373 529.046326,631.998169 
M496.572113,638.032410 
	C494.408081,637.965698 492.127960,638.321045 490.099152,637.762878 
	C478.188904,634.485962 469.617188,638.657776 462.889282,648.675598 
	C458.365204,655.411926 451.789398,661.105530 451.370789,669.812439 
	C450.923798,679.109741 451.336121,688.447937 451.356873,697.768250 
	C451.374268,705.569824 451.599579,713.379822 451.315430,721.170898 
	C450.931732,731.691772 450.041534,742.263672 456.046143,751.704956 
	C459.881073,757.734741 463.754486,763.796875 468.256378,769.318054 
	C470.107483,771.588318 473.518219,773.346558 476.460327,773.810242 
	C482.676758,774.790039 489.046722,774.922058 495.362579,775.122009 
	C516.980957,775.806641 538.601196,776.538330 560.226074,776.788879 
	C563.279358,776.824341 566.938599,774.930847 569.311584,772.806641 
	C574.242920,768.391907 578.815491,763.472961 582.918274,758.274170 
	C585.491394,755.013794 588.393127,750.963928 588.649902,747.102295 
	C589.896484,728.352173 590.286499,709.545410 591.008118,690.759827 
	C591.244263,684.611145 591.438904,678.456482 591.888367,672.321777 
	C592.243591,667.473083 591.526489,663.143677 588.234131,659.277649 
	C583.820251,654.094727 579.867065,648.510803 575.320496,643.454773 
	C573.808167,641.772949 571.153259,640.466248 568.889465,640.226318 
	C559.465759,639.227478 550.001038,638.313354 540.534424,638.091492 
	C526.215210,637.755859 511.881866,638.023071 496.572113,638.032410 
M626.000061,705.500000 
	C625.899353,697.528870 624.837280,689.427246 625.897705,681.613708 
	C628.120850,665.232605 616.633789,655.405701 609.222717,643.571289 
	C608.828674,642.942200 607.878479,642.415466 607.117676,642.300232 
	C599.934631,641.212708 592.761414,639.880798 585.531921,639.357544 
	C582.054504,639.105774 581.392090,641.551331 583.563477,644.363892 
	C586.309692,647.921021 589.289246,651.328369 591.721863,655.089111 
	C594.549744,659.460754 598.156860,661.279358 603.395264,661.096619 
	C607.500427,660.953369 611.670776,661.706787 615.753845,662.403870 
	C617.280579,662.664490 618.642090,663.893066 620.078857,664.680298 
	C619.986938,665.138794 619.895020,665.597229 619.803101,666.055664 
	C618.118713,666.363586 616.441772,666.875793 614.748413,666.937317 
	C611.089355,667.070435 607.421570,667.002258 603.757935,666.962585 
	C597.252686,666.892151 597.181763,667.043396 596.982727,673.608215 
	C596.599548,686.244141 596.027893,698.874390 595.662292,711.510742 
	C595.368835,721.653137 595.234558,731.800537 595.092590,741.946655 
	C595.047302,745.182983 596.778198,746.865356 600.028015,746.918945 
	C604.190613,746.987610 608.364197,746.879761 612.511902,747.160583 
	C614.603333,747.302063 616.648132,748.132812 618.713989,748.651917 
	C618.689575,749.288879 618.665100,749.925842 618.640686,750.562805 
	C616.521973,751.027893 614.419189,751.779236 612.281250,751.897949 
	C607.962646,752.137573 603.618774,751.902954 599.296753,752.106628 
	C594.538574,752.330872 589.723022,757.008484 588.692139,762.404236 
	C590.062317,762.313538 591.347595,762.301453 592.612000,762.132812 
	C600.603882,761.067017 608.377075,757.574951 616.723755,760.178284 
	C617.614136,760.456055 619.633301,759.463379 620.028442,758.572144 
	C621.718933,754.759766 623.447144,750.857056 624.280945,746.806091 
	C624.934204,743.631958 624.102783,740.182251 624.263855,736.871155 
	C624.756409,726.743103 625.409424,716.622864 626.000061,705.500000 
M663.810669,767.868896 
	C642.329834,766.747314 620.823181,765.146851 599.684265,771.042542 
	C600.274475,771.708557 600.867920,771.925171 601.467834,771.945129 
	C622.413330,772.641724 643.358643,773.342468 664.305542,773.992615 
	C677.442444,774.400269 690.584351,774.655823 703.718994,775.121338 
	C710.695496,775.368591 717.839172,775.081482 724.592285,776.517395 
	C736.132080,778.970947 744.907654,772.745605 755.108826,769.092346 
	C754.211487,768.521484 753.945251,768.203979 753.677795,768.203003 
	C724.038025,768.095825 694.398132,768.012268 663.810669,767.868896 
M767.635681,774.134888 
	C766.008728,773.853149 764.167297,772.936707 762.792480,773.401184 
	C757.284607,775.261963 751.942017,777.605530 746.498718,779.666260 
	C741.397827,781.597290 740.923645,782.668579 743.509827,789.415344 
	C750.458008,785.838013 757.358276,782.415466 764.102966,778.709717 
	C765.557678,777.910522 766.451721,776.091003 767.635681,774.134888 
z"/>
<path fill="#000000" opacity="1.000000" stroke="none" 
	d="
M497.063324,638.033264 
	C511.881866,638.023071 526.215210,637.755859 540.534424,638.091492 
	C550.001038,638.313354 559.465759,639.227478 568.889465,640.226318 
	C571.153259,640.466248 573.808167,641.772949 575.320496,643.454773 
	C579.867065,648.510803 583.820251,654.094727 588.234131,659.277649 
	C591.526489,663.143677 592.243591,667.473083 591.888367,672.321777 
	C591.438904,678.456482 591.244263,684.611145 591.008118,690.759827 
	C590.286499,709.545410 589.896484,728.352173 588.649902,747.102295 
	C588.393127,750.963928 585.491394,755.013794 582.918274,758.274170 
	C578.815491,763.472961 574.242920,768.391907 569.311584,772.806641 
	C566.938599,774.930847 563.279358,776.824341 560.226074,776.788879 
	C538.601196,776.538330 516.980957,775.806641 495.362579,775.122009 
	C489.046722,774.922058 482.676758,774.790039 476.460327,773.810242 
	C473.518219,773.346558 470.107483,771.588318 468.256378,769.318054 
	C463.754486,763.796875 459.881073,757.734741 456.046143,751.704956 
	C450.041534,742.263672 450.931732,731.691772 451.315430,721.170898 
	C451.599579,713.379822 451.374268,705.569824 451.356873,697.768250 
	C451.336121,688.447937 450.923798,679.109741 451.370789,669.812439 
	C451.789398,661.105530 458.365204,655.411926 462.889282,648.675598 
	C469.617188,638.657776 478.188904,634.485962 490.099152,637.762878 
	C492.127960,638.321045 494.408081,637.965698 497.063324,638.033264 
M538.536865,761.000061 
	C542.031982,761.073059 545.548828,760.922546 549.018250,761.260132 
	C560.344788,762.361938 572.581543,753.052246 573.883362,741.581909 
	C574.607788,735.199585 574.288574,728.694458 574.364990,722.243835 
	C574.548157,706.772156 574.846558,691.297913 574.639832,675.830811 
	C574.614380,673.924194 571.990784,670.642822 570.244568,670.405823 
	C561.361206,669.200439 552.375366,668.708618 543.414490,668.137939 
	C539.991394,667.919922 538.170471,669.828369 538.086487,673.297791 
	C538.050171,674.796021 538.023071,676.294495 537.969971,677.792175 
	C537.549072,689.675964 527.069885,697.849792 515.312683,695.469360 
	C508.359222,694.061523 504.804718,690.466736 503.956635,683.450928 
	C503.500702,679.679260 503.936676,675.775940 503.249390,672.065552 
	C502.867828,670.005554 501.132843,666.675842 499.786377,666.563110 
	C491.380066,665.858948 482.908173,665.678101 474.464417,665.793335 
	C470.368500,665.849182 468.601410,668.276917 468.799347,672.795898 
	C469.439819,687.418823 469.801178,702.059937 469.929626,716.697021 
	C469.995239,724.169373 469.143616,731.645691 469.048737,739.124573 
	C468.920624,749.222656 475.649139,756.911743 485.779449,757.701782 
	C503.021179,759.046326 520.299255,759.925537 538.536865,761.000061 
z"/>
<path fill="#000000" opacity="1.000000" stroke="none" 
	d="
M626.000061,705.999756 
	C625.409424,716.622864 624.756409,726.743103 624.263855,736.871155 
	C624.102783,740.182251 624.934204,743.631958 624.280945,746.806091 
	C623.447144,750.857056 621.718933,754.759766 620.028442,758.572144 
	C619.633301,759.463379 617.614136,760.456055 616.723755,760.178284 
	C608.377075,757.574951 600.603882,761.067017 592.612000,762.132812 
	C591.347595,762.301453 590.062317,762.313538 588.692139,762.404236 
	C589.723022,757.008484 594.538574,752.330872 599.296753,752.106628 
	C603.618774,751.902954 607.962646,752.137573 612.281250,751.897949 
	C614.419189,751.779236 616.521973,751.027893 618.640686,750.562805 
	C618.665100,749.925842 618.689575,749.288879 618.713989,748.651917 
	C616.648132,748.132812 614.603333,747.302063 612.511902,747.160583 
	C608.364197,746.879761 604.190613,746.987610 600.028015,746.918945 
	C596.778198,746.865356 595.047302,745.182983 595.092590,741.946655 
	C595.234558,731.800537 595.368835,721.653137 595.662292,711.510742 
	C596.027893,698.874390 596.599548,686.244141 596.982727,673.608215 
	C597.181763,667.043396 597.252686,666.892151 603.757935,666.962585 
	C607.421570,667.002258 611.089355,667.070435 614.748413,666.937317 
	C616.441772,666.875793 618.118713,666.363586 619.803101,666.055664 
	C619.895020,665.597229 619.986938,665.138794 620.078857,664.680298 
	C618.642090,663.893066 617.280579,662.664490 615.753845,662.403870 
	C611.670776,661.706787 607.500427,660.953369 603.395264,661.096619 
	C598.156860,661.279358 594.549744,659.460754 591.721863,655.089111 
	C589.289246,651.328369 586.309692,647.921021 583.563477,644.363892 
	C581.392090,641.551331 582.054504,639.105774 585.531921,639.357544 
	C592.761414,639.880798 599.934631,641.212708 607.117676,642.300232 
	C607.878479,642.415466 608.828674,642.942200 609.222717,643.571289 
	C616.633789,655.405701 628.120850,665.232605 625.897705,681.613708 
	C624.837280,689.427246 625.899353,697.528870 626.000061,705.999756 
z"/>
<path fill="#000000" opacity="1.000000" stroke="none" 
	d="
M664.284485,767.898071 
	C694.398132,768.012268 724.038025,768.095825 753.677795,768.203003 
	C753.945251,768.203979 754.211487,768.521484 755.108826,769.092346 
	C744.907654,772.745605 736.132080,778.970947 724.592285,776.517395 
	C717.839172,775.081482 710.695496,775.368591 703.718994,775.121338 
	C690.584351,774.655823 677.442444,774.400269 664.305542,773.992615 
	C643.358643,773.342468 622.413330,772.641724 601.467834,771.945129 
	C600.867920,771.925171 600.274475,771.708557 599.684265,771.042542 
	C620.823181,765.146851 642.329834,766.747314 664.284485,767.898071 
z"/>
<path fill="#000000" opacity="1.000000" stroke="none" 
	d="
M767.619873,774.438171 
	C766.451721,776.091003 765.557678,777.910522 764.102966,778.709717 
	C757.358276,782.415466 750.458008,785.838013 743.509827,789.415344 
	C740.923645,782.668579 741.397827,781.597290 746.498718,779.666260 
	C751.942017,777.605530 757.284607,775.261963 762.792480,773.401184 
	C764.167297,772.936707 766.008728,773.853149 767.619873,774.438171 
z"/>
<path fill="#121212" opacity="1.000000" stroke="none" 
	d="
M538.049438,761.000122 
	C520.299255,759.925537 503.021179,759.046326 485.779449,757.701782 
	C475.649139,756.911743 468.920624,749.222656 469.048737,739.124573 
	C469.143616,731.645691 469.995239,724.169373 469.929626,716.697021 
	C469.801178,702.059937 469.439819,687.418823 468.799347,672.795898 
	C468.601410,668.276917 470.368500,665.849182 474.464417,665.793335 
	C482.908173,665.678101 491.380066,665.858948 499.786377,666.563110 
	C501.132843,666.675842 502.867828,670.005554 503.249390,672.065552 
	C503.936676,675.775940 503.500702,679.679260 503.956635,683.450928 
	C504.804718,690.466736 508.359222,694.061523 515.312683,695.469360 
	C527.069885,697.849792 537.549072,689.675964 537.969971,677.792175 
	C538.023071,676.294495 538.050171,674.796021 538.086487,673.297791 
	C538.170471,669.828369 539.991394,667.919922 543.414490,668.137939 
	C552.375366,668.708618 561.361206,669.200439 570.244568,670.405823 
	C571.990784,670.642822 574.614380,673.924194 574.639832,675.830811 
	C574.846558,691.297913 574.548157,706.772156 574.364990,722.243835 
	C574.288574,728.694458 574.607788,735.199585 573.883362,741.581909 
	C572.581543,753.052246 560.344788,762.361938 549.018250,761.260132 
	C545.548828,760.922546 542.031982,761.073059 538.049438,761.000122 
M478.210907,747.254272 
	C481.023621,751.470276 485.622803,751.528503 489.840485,751.791565 
	C509.078552,752.991394 528.326660,754.065063 547.582581,754.931152 
	C559.801270,755.480774 567.774048,747.422668 568.034424,735.216370 
	C568.360657,719.927246 569.578735,704.631775 569.271240,689.361938 
	C569.000366,675.908203 570.601440,676.739563 557.341858,675.034058 
	C556.682068,674.949158 556.014526,674.926453 555.353088,674.852478 
	C545.084900,673.705078 545.084961,673.704224 543.163147,683.515076 
	C540.942017,694.854065 531.899841,701.858826 519.340759,701.969666 
	C507.723846,702.072205 501.363586,696.696716 498.675262,684.503845 
	C495.914307,671.981628 495.914276,671.980713 483.116333,672.006226 
	C481.951416,672.008606 480.785767,672.067688 479.621796,672.041748 
	C475.573120,671.951660 473.850342,674.066406 474.054108,677.942566 
	C474.341980,683.418579 474.904968,688.889832 474.956543,694.366760 
	C475.091431,708.679260 474.853302,722.997009 475.143433,737.304993 
	C475.206848,740.432678 476.851074,743.528259 478.210907,747.254272 
z"/>
<path fill="#000000" opacity="1.000000" stroke="none" 
	d="
M477.989105,746.946472 
	C476.851074,743.528259 475.206848,740.432678 475.143433,737.304993 
	C474.853302,722.997009 475.091431,708.679260 474.956543,694.366760 
	C474.904968,688.889832 474.341980,683.418579 474.054108,677.942566 
	C473.850342,674.066406 475.573120,671.951660 479.621796,672.041748 
	C480.785767,672.067688 481.951416,672.008606 483.116333,672.006226 
	C495.914276,671.980713 495.914307,671.981628 498.675262,684.503845 
	C501.363586,696.696716 507.723846,702.072205 519.340759,701.969666 
	C531.899841,701.858826 540.942017,694.854065 543.163147,683.515076 
	C545.084961,673.704224 545.084900,673.705078 555.353088,674.852478 
	C556.014526,674.926453 556.682068,674.949158 557.341858,675.034058 
	C570.601440,676.739563 569.000366,675.908203 569.271240,689.361938 
	C569.578735,704.631775 568.360657,719.927246 568.034424,735.216370 
	C567.774048,747.422668 559.801270,755.480774 547.582581,754.931152 
	C528.326660,754.065063 509.078552,752.991394 489.840485,751.791565 
	C485.622803,751.528503 481.023621,751.470276 477.989105,746.946472 
M494.407196,733.689148 
	C495.115631,730.395020 492.826324,728.338562 490.512146,729.144775 
	C488.210358,729.946594 485.828064,732.690613 485.057617,735.089355 
	C484.321625,737.380859 488.231201,739.064758 490.390961,737.484009 
	C491.709351,736.519165 492.830902,735.285339 494.407196,733.689148 
M546.361328,701.884338 
	C545.583679,703.304993 544.806091,704.725647 544.028503,706.146362 
	C545.013733,706.428833 546.333191,707.246887 546.915466,706.883606 
	C548.170532,706.100464 549.046753,704.710205 550.078003,703.568420 
	C549.041809,702.927307 548.005615,702.286194 546.361328,701.884338 
z"/>
<path fill="#121212" opacity="1.000000" stroke="none" 
	d="
M494.223999,733.930664 
	C492.830902,735.285339 491.709351,736.519165 490.390961,737.484009 
	C488.231201,739.064758 484.321625,737.380859 485.057617,735.089355 
	C485.828064,732.690613 488.210358,729.946594 490.512146,729.144775 
	C492.826324,728.338562 495.115631,730.395020 494.223999,733.930664 
z"/>
<path fill="#121212" opacity="1.000000" stroke="none" 
	d="
M546.665405,701.764709 
	C548.005615,702.286194 549.041809,702.927307 550.078003,703.568420 
	C549.046753,704.710205 548.170532,706.100464 546.915466,706.883606 
	C546.333191,707.246887 545.013733,706.428833 544.028503,706.146362 
	C544.806091,704.725647 545.583679,703.304993 546.665405,701.764709 
z"/>
</svg>